<?xml version="1.0" standalone="no"?>
<!DOCTYPE svg PUBLIC "-//W3C//DTD SVG 20010904//EN"
 "http://www.w3.org/TR/2001/REC-SVG-20010904/DTD/svg10.dtd">
<svg version="1.0" xmlns="http://www.w3.org/2000/svg"
 width="512.000000pt" height="512.000000pt" viewBox="0 0 512.000000 512.000000"
 preserveAspectRatio="xMidYMid meet">

<g transform="translate(0.000000,512.000000) scale(0.100000,-0.100000)"
fill="#fff" stroke="none">
<path d="M3155 4973 c-55 -14 -1966 -706 -2002 -724 -55 -28 -128 -106 -156
-167 l-22 -47 0 -1820 0 -1820 22 -47 c30 -66 105 -143 172 -175 l56 -28 1335
0 1335 0 56 27 c70 35 132 97 167 168 l27 55 3 718 3 717 -71 0 -70 0 -2 -709
-3 -709 -30 -44 c-18 -25 -49 -52 -75 -65 l-44 -23 -1296 0 c-1235 0 -1297 1
-1335 19 -49 22 -91 69 -105 119 -8 26 -10 574 -8 1819 l3 1781 30 43 c17 23
48 52 70 63 40 21 43 21 1341 24 l1300 2 45 -23 c24 -13 58 -43 74 -66 l30
-43 3 -954 2 -954 70 0 70 0 -2 963 -3 962 -28 57 c-17 34 -50 77 -83 107 -77
71 -146 91 -309 91 l-123 0 -4 203 c-5 235 -16 279 -94 366 -66 73 -153 114
-252 117 -42 2 -86 0 -97 -3z m182 -158 c54 -27 97 -78 113 -136 6 -19 10
-114 10 -211 l0 -178 -892 1 c-612 0 -885 3 -868 10 33 14 1428 519 1460 529
53 17 125 11 177 -15z"/>
<path d="M2425 3659 c-251 -34 -506 -164 -672 -342 -83 -89 -135 -168 -193
-291 -223 -473 -85 -1032 334 -1348 217 -164 508 -247 771 -218 390 42 720
271 886 615 152 315 154 650 5 960 -153 320 -432 538 -779 609 -99 21 -262 28
-352 15z m65 -349 l0 -200 -131 0 -131 0 6 33 c10 53 103 228 148 281 33 39
91 86 106 86 1 0 2 -90 2 -200z m244 118 c49 -55 141 -229 152 -285 l7 -33
-132 0 -131 0 0 200 0 201 29 -15 c16 -9 50 -39 75 -68z m-513 13 c-33 -46
-100 -191 -122 -263 l-21 -68 -154 0 c-89 0 -154 4 -154 9 0 18 164 183 224
226 64 45 212 124 234 125 9 0 7 -9 -7 -29z m774 -18 c39 -19 97 -54 131 -78
60 -43 224 -208 224 -226 0 -5 -65 -9 -154 -9 l-154 0 -21 68 c-22 73 -89 217
-123 265 l-21 29 24 -7 c13 -4 56 -23 94 -42z m-958 -480 c-3 -21 -11 -100
-18 -175 l-13 -138 -206 0 -207 0 9 61 c11 84 34 170 63 235 l24 54 177 0 176
0 -5 -37z m453 -138 l0 -175 -170 0 -170 0 0 56 c0 52 25 252 35 282 3 9 43
12 155 12 l150 0 0 -175z m444 158 c12 -38 36 -221 36 -275 l0 -58 -170 0
-170 0 0 175 0 175 149 0 c134 0 150 -2 155 -17z m521 -37 c29 -65 52 -151 63
-235 l9 -61 -209 0 -208 0 0 43 c0 23 -7 97 -15 162 -8 66 -15 126 -15 133 0
9 42 12 176 12 l175 0 24 -54z m-1436 -573 c7 -76 15 -155 18 -175 l5 -38
-176 0 -177 0 -24 54 c-29 65 -52 151 -63 235 l-9 61 207 0 206 0 13 -137z
m471 -38 l0 -175 -149 0 c-134 0 -150 2 -155 18 -12 37 -36 220 -36 275 l0 57
170 0 170 0 0 -175z m480 118 c0 -55 -24 -238 -36 -275 -5 -16 -21 -18 -155
-18 l-149 0 0 175 0 175 170 0 170 0 0 -57z m548 -4 c-11 -84 -34 -170 -63
-235 l-24 -54 -175 0 c-161 0 -176 1 -176 18 0 9 7 67 15 127 8 61 15 131 15
158 l0 47 208 0 209 0 -9 -61z m-1419 -486 c22 -74 89 -218 123 -266 l21 -29
-24 7 c-48 15 -164 77 -224 119 -61 44 -225 209 -225 227 0 5 65 9 154 9 l154
0 21 -67z m391 -133 l0 -201 -29 15 c-16 9 -50 39 -75 68 -49 55 -141 229
-152 286 l-6 32 131 0 131 0 0 -200z m396 168 c-11 -57 -103 -231 -152 -286
-25 -29 -59 -59 -75 -68 l-29 -15 0 201 0 200 131 0 132 0 -7 -32z m464 23 c0
-18 -164 -183 -224 -226 -60 -43 -178 -106 -225 -120 l-24 -7 21 29 c34 48
101 192 123 266 l21 67 154 0 c89 0 154 -4 154 -9z"/>
<path d="M1312 763 l3 -68 908 -3 907 -2 0 70 0 70 -910 0 -911 0 3 -67z"/>
<path d="M3410 760 l0 -70 198 2 197 3 3 68 3 67 -201 0 -200 0 0 -70z"/>
</g>
</svg>
